<svg width="233" height="54" viewBox="0 0 233 54" fill="none" xmlns="http://www.w3.org/2000/svg">
<path d="M9.25555 49.9496C9.25555 52.4496 7.74555 53.9596 5.51555 53.9596C3.28555 53.9596 1.93555 52.2496 1.93555 50.0896C1.93555 47.8096 3.39554 46.0996 5.63554 46.0996C7.87554 46.0996 9.24554 47.8496 9.24554 49.9496H9.25555ZM3.76555 50.0496C3.76555 51.5396 4.46555 52.5896 5.61555 52.5896C6.76555 52.5896 7.44555 51.4796 7.44555 49.9996C7.44555 48.6296 6.79555 47.4596 5.60555 47.4596C4.41554 47.4596 3.76555 48.5696 3.76555 50.0496Z" fill="white"/>
<path d="M10.3855 53.8297V46.2197H12.3955L13.9755 49.0097C14.4255 49.8097 14.8755 50.7597 15.2155 51.6197H15.2455C15.1355 50.6197 15.0955 49.5897 15.0955 48.4497V46.2297H16.6755V53.8397H14.8655L13.2355 50.8997C12.7855 50.0897 12.2855 49.0997 11.9155 48.2097H11.8855C11.9255 49.2297 11.9555 50.2997 11.9555 51.5397V53.8297H10.3755H10.3855Z" fill="white"/>
<path d="M22.7058 50.6097H19.9058V52.4197H23.0358V53.8297H18.1758V46.2197H22.8758V47.6297H19.9058V49.2097H22.7058V50.6097Z" fill="white"/>
<path d="M26.7554 50.2998V51.4398H23.7954V50.2998H26.7554Z" fill="white"/>
<path d="M27.8954 52.0596C28.3554 52.2996 29.0654 52.5296 29.8054 52.5296C30.5954 52.5296 31.0154 52.1996 31.0154 51.7096C31.0154 51.2196 30.6554 50.9596 29.7354 50.6396C28.4754 50.1996 27.6454 49.4996 27.6454 48.3896C27.6454 47.0896 28.7254 46.0996 30.5254 46.0996C31.3854 46.0996 32.0154 46.2796 32.4654 46.4796L32.0854 47.8696C31.7854 47.7196 31.2354 47.5096 30.4954 47.5096C29.7554 47.5096 29.3854 47.8496 29.3854 48.2396C29.3854 48.7296 29.8154 48.9396 30.7954 49.3096C32.1354 49.8096 32.7754 50.5096 32.7754 51.5796C32.7754 52.8596 31.7954 53.9396 29.7054 53.9396C28.8354 53.9396 27.9754 53.7096 27.5454 53.4796L27.8954 52.0596Z" fill="white"/>
<path d="M35.4057 47.66H33.3657V46.21H39.2157V47.66H37.1357V53.83H35.4057V47.66Z" fill="white"/>
<path d="M46.7555 49.9496C46.7555 52.4496 45.2455 53.9596 43.0155 53.9596C40.7855 53.9596 39.4355 52.2496 39.4355 50.0896C39.4355 47.8096 40.8955 46.0996 43.1355 46.0996C45.3755 46.0996 46.7455 47.8496 46.7455 49.9496H46.7555ZM41.2555 50.0496C41.2555 51.5396 41.9555 52.5896 43.1055 52.5896C44.2555 52.5896 44.9355 51.4796 44.9355 49.9996C44.9355 48.6296 44.2856 47.4596 43.0956 47.4596C41.9056 47.4596 41.2555 48.5696 41.2555 50.0496Z" fill="white"/>
<path d="M47.8857 46.3197C48.4157 46.2297 49.1657 46.1597 50.2157 46.1597C51.2657 46.1597 52.0357 46.3597 52.5457 46.7697C53.0357 47.1497 53.3557 47.7897 53.3557 48.5297C53.3557 49.2697 53.1057 49.9097 52.6557 50.3397C52.0657 50.8897 51.1957 51.1397 50.1857 51.1397C49.9557 51.1397 49.7557 51.1297 49.5957 51.1097V53.8297H47.8857V46.3197ZM49.5957 49.7797C49.7457 49.8097 49.9257 49.8197 50.1757 49.8197C51.0857 49.8197 51.6557 49.3597 51.6557 48.5797C51.6557 47.8797 51.1657 47.4597 50.3157 47.4597C49.9657 47.4597 49.7257 47.4897 49.6057 47.5297V49.7797H49.5957Z" fill="white"/>
<path d="M61.2556 50.6097H58.4556V52.4197H61.5856V53.8297H56.7256V46.2197H61.4256V47.6297H58.4556V49.2097H61.2556V50.6097Z" fill="white"/>
<path d="M62.7554 46.3197C63.3854 46.2197 64.2154 46.1597 65.0854 46.1597C66.5354 46.1597 67.4654 46.4197 68.2054 46.9697C68.9954 47.5597 69.4954 48.4897 69.4954 49.8397C69.4954 51.2997 68.9654 52.2997 68.2354 52.9197C67.4354 53.5897 66.2154 53.8997 64.7254 53.8997C63.8354 53.8997 63.2054 53.8397 62.7754 53.7897V46.3197H62.7554ZM64.4854 52.5297C64.6354 52.5597 64.8654 52.5597 65.0854 52.5597C66.6454 52.5697 67.6554 51.7097 67.6554 49.8897C67.6654 48.3097 66.7354 47.4697 65.2654 47.4697C64.8854 47.4697 64.6354 47.4997 64.4854 47.5397V52.5197V52.5297Z" fill="white"/>
<path d="M72.3255 46.2197V50.5997C72.3255 51.9097 72.8255 52.5797 73.7055 52.5797C74.5855 52.5797 75.1055 51.9497 75.1055 50.5997V46.2197H76.8255V50.4897C76.8255 52.8397 75.6355 53.9597 73.6555 53.9597C71.6755 53.9597 70.6055 52.8997 70.6055 50.4697V46.2197H72.3355H72.3255Z" fill="white"/>
<path d="M83.8956 53.6098C83.5756 53.7698 82.8656 53.9398 81.9456 53.9398C79.3156 53.9398 77.9556 52.2998 77.9556 50.1298C77.9556 47.5298 79.8056 46.0898 82.1156 46.0898C83.0056 46.0898 83.6856 46.2698 83.9856 46.4298L83.6356 47.7999C83.2856 47.6499 82.7956 47.5198 82.1856 47.5198C80.8156 47.5198 79.7556 48.3398 79.7556 50.0398C79.7556 51.5598 80.6556 52.5198 82.1956 52.5198C82.7156 52.5198 83.2956 52.4098 83.6256 52.2698L83.8856 53.6098H83.8956Z" fill="white"/>
<path d="M86.9054 51.8797L86.3654 53.8297H84.5854L86.9155 46.2197H89.1754L91.5354 53.8297H89.6855L89.0954 51.8797H86.9155H86.9054ZM88.8454 50.5897L88.3754 48.9697C88.2354 48.5197 88.1055 47.9497 87.9955 47.4997H87.9754C87.8654 47.9497 87.7454 48.5297 87.6254 48.9697L87.1754 50.5897H88.8555H88.8454Z" fill="white"/>
<path d="M93.0757 47.66H91.0356V46.21H96.8857V47.66H94.8056V53.83H93.0757V47.66Z" fill="white"/>
<path d="M99.5156 46.2197V53.8297H97.7856V46.2197H99.5156Z" fill="white"/>
<path d="M107.976 49.9496C107.976 52.4496 106.466 53.9596 104.236 53.9596C102.006 53.9596 100.656 52.2496 100.656 50.0896C100.656 47.8096 102.116 46.0996 104.356 46.0996C106.596 46.0996 107.966 47.8496 107.966 49.9496H107.976ZM102.476 50.0496C102.476 51.5396 103.176 52.5896 104.326 52.5896C105.476 52.5896 106.156 51.4796 106.156 49.9996C106.156 48.6296 105.496 47.4596 104.316 47.4596C103.136 47.4596 102.476 48.5696 102.476 50.0496Z" fill="white"/>
<path d="M109.106 53.8297V46.2197H111.116L112.696 49.0097C113.146 49.8097 113.596 50.7597 113.936 51.6197H113.966C113.856 50.6197 113.816 49.5897 113.816 48.4497V46.2297H115.396V53.8397H113.586L111.956 50.8997C111.506 50.0897 111.006 49.0997 110.636 48.2097H110.606C110.656 49.2297 110.676 50.2997 110.676 51.5397V53.8297H109.096H109.106Z" fill="white"/>
<path d="M120.945 51.8797L120.405 53.8297H118.625L120.955 46.2197H123.215L125.576 53.8297H123.725L123.135 51.8797H120.955H120.945ZM122.875 50.5897L122.405 48.9697C122.265 48.5197 122.135 47.9497 122.025 47.4997H122.005C121.895 47.9497 121.775 48.5297 121.655 48.9697L121.205 50.5897H122.885H122.875Z" fill="white"/>
<path d="M126.575 53.8297V46.2197H128.585L130.165 49.0097C130.615 49.8097 131.065 50.7597 131.405 51.6197H131.435C131.325 50.6197 131.285 49.5897 131.285 48.4497V46.2297H132.865V53.8397H131.055L129.425 50.8997C128.975 50.0897 128.475 49.0997 128.105 48.2097H128.075C128.125 49.2297 128.145 50.2997 128.145 51.5397V53.8297H126.565H126.575Z" fill="white"/>
<path d="M134.366 46.3197C134.996 46.2197 135.826 46.1597 136.696 46.1597C138.146 46.1597 139.076 46.4197 139.816 46.9697C140.606 47.5597 141.106 48.4897 141.106 49.8397C141.106 51.2997 140.576 52.2997 139.846 52.9197C139.046 53.5897 137.826 53.8997 136.336 53.8997C135.446 53.8997 134.816 53.8397 134.386 53.7897V46.3197H134.366ZM136.096 52.5297C136.246 52.5597 136.476 52.5597 136.696 52.5597C138.256 52.5697 139.266 51.7097 139.266 49.8897C139.276 48.3097 138.356 47.4697 136.876 47.4697C136.496 47.4697 136.246 47.4997 136.096 47.5397V52.5197V52.5297Z" fill="white"/>
<path d="M150.096 53.6098C149.776 53.7698 149.066 53.9398 148.146 53.9398C145.516 53.9398 144.156 52.2998 144.156 50.1298C144.156 47.5298 146.006 46.0898 148.316 46.0898C149.206 46.0898 149.886 46.2698 150.186 46.4298L149.836 47.7999C149.486 47.6499 148.996 47.5198 148.386 47.5198C147.016 47.5198 145.956 48.3398 145.956 50.0398C145.956 51.5598 146.856 52.5198 148.396 52.5198C148.916 52.5198 149.496 52.4098 149.826 52.2698L150.086 53.6098H150.096Z" fill="white"/>
<path d="M153.106 51.8797L152.566 53.8297H150.786L153.116 46.2197H155.376L157.736 53.8297H155.886L155.296 51.8797H153.116H153.106ZM155.036 50.5897L154.566 48.9697C154.426 48.5197 154.296 47.9497 154.186 47.4997H154.166C154.056 47.9497 153.936 48.5297 153.816 48.9697L153.366 50.5897H155.046H155.036Z" fill="white"/>
<path d="M158.735 46.3197C159.285 46.2297 160.115 46.1597 161.025 46.1597C162.155 46.1597 162.945 46.3297 163.485 46.7597C163.935 47.1197 164.185 47.6497 164.185 48.3497C164.185 49.3197 163.495 49.9897 162.845 50.2297V50.2597C163.375 50.4697 163.665 50.9797 163.865 51.6797C164.105 52.5397 164.335 53.5297 164.485 53.8297H162.725C162.605 53.6197 162.425 52.9897 162.195 52.0597C161.995 51.1097 161.665 50.8497 160.965 50.8397H160.445V53.8297H158.735V46.3197ZM160.445 49.5997H161.125C161.985 49.5997 162.495 49.1697 162.495 48.5097C162.495 47.8097 162.025 47.4597 161.235 47.4497C160.815 47.4497 160.575 47.4797 160.455 47.5097V49.6097L160.445 49.5997Z" fill="white"/>
<path d="M169.956 50.6097H167.156V52.4197H170.286V53.8297H165.426V46.2197H170.126V47.6297H167.156V49.2097H169.956V50.6097Z" fill="white"/>
<path d="M175.986 50.6097H173.186V52.4197H176.316V53.8297H171.456V46.2197H176.156V47.6297H173.186V49.2097H175.986V50.6097Z" fill="white"/>
<path d="M177.485 46.3197C178.035 46.2297 178.865 46.1597 179.775 46.1597C180.905 46.1597 181.695 46.3297 182.235 46.7597C182.685 47.1197 182.935 47.6497 182.935 48.3497C182.935 49.3197 182.245 49.9897 181.595 50.2297V50.2597C182.125 50.4697 182.415 50.9797 182.615 51.6797C182.855 52.5397 183.085 53.5297 183.235 53.8297H181.475C181.355 53.6197 181.175 52.9897 180.945 52.0597C180.745 51.1097 180.415 50.8497 179.715 50.8397H179.195V53.8297H177.485V46.3197ZM179.195 49.5997H179.875C180.735 49.5997 181.245 49.1697 181.245 48.5097C181.245 47.8097 180.775 47.4597 179.985 47.4497C179.565 47.4497 179.325 47.4797 179.205 47.5097V49.6097L179.195 49.5997Z" fill="white"/>
<path d="M192.056 53.6098C191.736 53.7698 191.026 53.9398 190.106 53.9398C187.476 53.9398 186.116 52.2998 186.116 50.1298C186.116 47.5298 187.966 46.0898 190.276 46.0898C191.166 46.0898 191.846 46.2698 192.146 46.4298L191.796 47.7999C191.446 47.6499 190.956 47.5198 190.346 47.5198C188.976 47.5198 187.916 48.3398 187.916 50.0398C187.916 51.5598 188.816 52.5198 190.356 52.5198C190.876 52.5198 191.456 52.4098 191.786 52.2698L192.046 53.6098H192.056Z" fill="white"/>
<path d="M197.706 50.6097H194.906V52.4197H198.036V53.8297H193.176V46.2197H197.876V47.6297H194.906V49.2097H197.706V50.6097Z" fill="white"/>
<path d="M199.205 53.8297V46.2197H201.215L202.795 49.0097C203.245 49.8097 203.695 50.7597 204.035 51.6197H204.065C203.955 50.6197 203.915 49.5897 203.915 48.4497V46.2297H205.495V53.8397H203.685L202.055 50.8997C201.605 50.0897 201.105 49.0997 200.735 48.2097H200.705C200.745 49.2297 200.775 50.2997 200.775 51.5397V53.8297H199.195H199.205Z" fill="white"/>
<path d="M208.466 47.66H206.426V46.21H212.276V47.66H210.196V53.83H208.466V47.66Z" fill="white"/>
<path d="M217.706 50.6097H214.906V52.4197H218.036V53.8297H213.176V46.2197H217.876V47.6297H214.906V49.2097H217.706V50.6097Z" fill="white"/>
<path d="M219.206 46.3197C219.756 46.2297 220.586 46.1597 221.496 46.1597C222.626 46.1597 223.416 46.3297 223.956 46.7597C224.406 47.1197 224.656 47.6497 224.656 48.3497C224.656 49.3197 223.966 49.9897 223.316 50.2297V50.2597C223.846 50.4697 224.136 50.9797 224.336 51.6797C224.576 52.5397 224.806 53.5297 224.956 53.8297H223.196C223.076 53.6197 222.886 52.9897 222.666 52.0597C222.466 51.1097 222.136 50.8497 221.436 50.8397H220.916V53.8297H219.206V46.3197ZM220.916 49.5997H221.596C222.456 49.5997 222.966 49.1697 222.966 48.5097C222.966 47.8097 222.496 47.4597 221.706 47.4497C221.286 47.4497 221.046 47.4797 220.926 47.5097V49.6097L220.916 49.5997Z" fill="white"/>
<path d="M232.466 5.02975C232.466 7.02975 230.866 8.60975 228.816 8.60975C226.766 8.60975 225.146 7.02975 225.146 5.02975C225.146 3.02975 226.786 1.48975 228.816 1.48975C230.846 1.48975 232.466 3.06975 232.466 5.02975ZM226.165 5.04975C226.165 6.56975 227.306 7.78975 228.826 7.78975C230.346 7.78975 231.456 6.56975 231.456 5.04975C231.456 3.52975 230.336 2.30975 228.826 2.30975C227.316 2.30975 226.165 3.52975 226.165 5.04975ZM228.316 6.79975H227.385V3.40975C227.655 3.36975 228.166 3.29975 228.796 3.29975C229.516 3.29975 229.826 3.40975 230.056 3.54975C230.286 3.68975 230.436 3.94975 230.436 4.28975C230.436 4.64975 230.116 4.93975 229.676 5.06975V5.10975C230.036 5.23975 230.226 5.50975 230.326 5.96975C230.436 6.47975 230.516 6.66975 230.576 6.78975H229.546C229.436 6.65975 229.376 6.36975 229.296 6.00975C229.236 5.64975 229.045 5.49975 228.665 5.49975H228.306V6.78975L228.316 6.79975ZM228.336 4.85975H228.695C229.095 4.85975 229.396 4.70975 229.396 4.41975C229.396 4.12975 229.166 3.95975 228.746 3.95975C228.576 3.95975 228.456 3.97975 228.346 3.97975V4.85975H228.336Z" fill="white"/>
<path d="M10.2756 27.9901C9.98559 27.9901 9.70559 27.9801 9.41559 27.9501C5.11559 27.5801 0.475586 24.3301 0.475586 19.7401H4.47559C4.47559 21.9601 7.26558 23.7501 9.75558 23.9701C11.8056 24.1401 13.8156 23.1901 15.0556 21.5701L0.875587 16.3301L1.07558 14.7501C1.66558 10.0901 5.59558 6.54006 10.2156 6.48006C12.6956 6.47006 15.1856 7.46005 17.0156 9.26005C18.7156 10.9401 19.6556 13.1101 19.6556 15.3701H15.6556C15.6556 14.1901 15.1456 13.0301 14.2056 12.1101C13.1556 11.0701 11.6956 10.4801 10.2656 10.4801C8.14559 10.5101 6.27559 11.8401 5.44559 13.7501L20.3956 19.2801L19.7656 21.1301C18.3556 25.2701 14.5156 28.0001 10.2656 28.0001L10.2756 27.9901Z" fill="white"/>
<path d="M31.2755 27.7899C27.1355 27.7899 23.4055 24.7199 22.6955 20.5199L22.6655 20.1799V0.109863H26.6655V19.9999C27.1555 22.3999 29.4455 24.0699 31.8455 23.7599C34.1855 23.4499 35.8855 21.3699 35.8855 18.8199H39.8855C39.8855 23.4099 36.7255 27.1499 32.3655 27.7299C31.9955 27.7799 31.6355 27.7999 31.2755 27.7999V27.7899Z" fill="white"/>
<path d="M30.1753 8.02979H24.6553V12.0298H30.1753V8.02979Z" fill="white"/>
<path d="M173.715 27.7899C169.575 27.7899 165.845 24.7199 165.135 20.5199L165.105 20.1799V0.109863H169.105V19.9999C169.595 22.3999 171.875 24.0799 174.285 23.7599C176.645 23.4499 178.415 21.3099 178.325 18.8899L182.325 18.7399C182.495 23.1999 179.195 27.1499 174.805 27.7199C174.435 27.7699 174.075 27.7899 173.715 27.7899Z" fill="white"/>
<path d="M172.615 8.02979H167.095V12.0298H172.615V8.02979Z" fill="white"/>
<path d="M52.4454 27.68C52.2354 27.68 52.0253 27.68 51.8153 27.66C47.5353 27.37 42.9854 24.67 42.9854 20.26V9.21996H46.9854V20.26C46.9854 22.26 49.9453 23.52 52.0854 23.67C53.7954 23.78 55.9154 23.05 57.1254 21.92C57.5354 21.54 58.0153 20.94 58.0153 20.25V9.20996H62.0153V26.69H58.0153V26.17C56.3353 27.12 54.3153 27.67 52.4353 27.67L52.4454 27.68Z" fill="white"/>
<path d="M73.4655 28.1399C73.4055 28.1399 73.3455 28.1399 73.2855 28.1399C68.2255 28.0499 63.9255 23.8499 63.6955 18.7899C63.4655 13.7899 67.2355 9.31986 72.2655 8.60986C74.5955 8.27986 76.9255 8.81986 78.8755 10.0399V0.109863H82.8755V21.1699L82.7555 21.5099C81.2755 25.4999 77.5555 28.1499 73.4655 28.1499V28.1399ZM73.6155 12.5099C73.3555 12.5099 73.0855 12.5299 72.8255 12.5699C70.1855 12.9399 67.5355 15.2999 67.6955 18.6099C67.8355 21.6099 70.3755 24.0899 73.3655 24.1499C75.7155 24.2099 77.8955 22.7099 78.8855 20.4299V15.5599C77.7255 13.6699 75.7155 12.5199 73.6255 12.5199L73.6155 12.5099Z" fill="white"/>
<path d="M94.4555 43.47C92.0455 43.47 89.7955 42.68 88.3455 41.43C85.8655 39.27 84.6555 37.03 84.6555 34.59H88.6555C88.6555 35.37 88.8955 36.61 90.9655 38.42C92.1155 39.42 95.5455 40.23 98.2755 38.3C98.7955 37.93 99.6855 36.88 99.7755 36.47L99.9155 25.14C98.2355 26.45 96.1355 27.2 93.7755 27.2C88.2655 27.2 84.1055 22.31 84.1055 15.83V9.23996H88.1055V15.83C88.1055 20.1 90.4855 23.2 93.7755 23.2C97.3955 23.2 99.9355 20.32 100.025 16.16V15.98C100.025 15.98 100.025 15.96 100.025 15.94L100.105 9.20996L104.105 9.25996L104.025 15.97C104.025 16.1 104.025 16.23 104.025 16.35L103.775 36.6C103.695 39.25 100.625 41.55 100.595 41.57C98.6955 42.92 96.5155 43.49 94.4555 43.49V43.47Z" fill="white"/>
<path d="M140.626 26.7099L136.626 26.6899C136.626 26.0099 136.616 25.1299 136.596 24.0799C136.576 22.5699 136.546 20.6999 136.546 18.5499C136.556 14.6299 133.576 11.8499 130.886 11.8199C129.446 11.7999 128.346 12.5799 127.676 13.2399C126.166 14.7299 125.246 17.1399 125.206 19.7199C125.206 19.7799 125.206 19.8499 125.206 19.9099V26.7099H121.206C121.206 25.9599 121.206 25.1999 121.206 24.4499C121.206 22.9299 121.196 21.3999 121.206 19.8799C121.206 19.8199 121.206 19.7499 121.206 19.6899C121.206 16.9599 120.196 14.4599 118.426 12.7999C117.256 11.6999 115.876 11.1199 114.626 11.2299C112.016 11.4399 109.206 14.8099 109.206 19.8999V26.7099H105.206V19.8999C105.206 13.1999 109.206 7.63989 114.306 7.23989C116.696 7.04989 119.136 7.98989 121.156 9.87989C121.956 10.6299 122.656 11.4999 123.226 12.4499C123.696 11.6899 124.246 10.9999 124.856 10.3999C126.536 8.73989 128.656 7.82989 130.826 7.82989C130.856 7.82989 130.896 7.82989 130.926 7.82989C136.146 7.89989 140.546 12.8199 140.526 18.5799C140.526 20.6999 140.546 22.5399 140.576 24.0299C140.596 25.1199 140.606 26.0299 140.606 26.7299L140.626 26.7099Z" fill="white"/>
<path d="M161.525 26.9897L149.215 26.8397L148.805 26.6397C145.025 24.7697 142.785 20.7997 143.225 16.7797C143.745 12.0397 147.945 8.17969 152.585 8.17969C157.465 8.17969 161.285 12.0597 161.285 17.0197V18.9897L159.315 19.0197C156.935 19.0597 154.535 19.0297 152.215 19.0097C150.605 18.9897 148.955 18.9797 147.305 18.9797C147.655 20.5597 148.705 21.9797 150.215 22.8597L161.575 22.9997L161.525 26.9997V26.9897ZM147.975 14.9697C149.415 14.9697 150.855 14.9897 152.255 14.9997C153.775 15.0197 155.325 15.0397 156.885 15.0297C156.225 13.4397 154.765 12.1697 152.585 12.1697C150.935 12.1697 149.025 13.2497 147.975 14.9697Z" fill="white"/>
<path d="M189.325 26.6999H185.325V14.6199L185.485 14.2399C187.035 10.5999 190.565 8.15986 194.475 8.01986C197.125 7.91986 199.935 8.94986 201.735 10.6899C203.065 11.9799 203.765 13.5499 203.765 15.2399H199.765C199.765 14.6499 199.495 14.0799 198.955 13.5599C197.945 12.5799 196.215 11.9699 194.615 12.0199C192.375 12.0999 190.335 13.4299 189.325 15.4599V26.6899V26.6999Z" fill="white"/>
<path d="M215.555 27.37C211.025 27.37 207.055 24.18 206.045 19.69L205.995 19.25L206.045 15.16C207.025 10.69 211.015 7.47998 215.555 7.47998C215.605 7.47998 215.645 7.47998 215.695 7.47998C220.165 7.53998 224.105 10.77 225.065 15.16L225.115 15.59L225.065 19.69C224.085 24.08 220.295 27.24 215.835 27.36C215.745 27.36 215.655 27.36 215.555 27.36V27.37ZM209.995 19.01C210.665 21.56 212.955 23.36 215.555 23.36C215.605 23.36 215.665 23.36 215.715 23.36C218.265 23.29 220.455 21.51 221.105 19.01V15.81C220.465 13.32 218.195 11.5 215.635 11.47C212.995 11.42 210.655 13.25 209.995 15.81V19.01Z" fill="white"/>
</svg>
